<?xml version="1.0" encoding="utf-8"?>
<!-- Generator: Adobe Illustrator 11.0, SVG Export Plug-In . SVG Version: 6.0.0 Build 78)  -->
<!DOCTYPE svg PUBLIC "-//W3C//DTD SVG 1.0//EN"    "http://www.w3.org/TR/2001/REC-SVG-20010904/DTD/svg10.dtd" [
	<!ENTITY ns_flows "http://ns.adobe.com/Flows/1.0/">
	<!ENTITY ns_extend "http://ns.adobe.com/Extensibility/1.0/">
	<!ENTITY ns_ai "http://ns.adobe.com/AdobeIllustrator/10.0/">
	<!ENTITY ns_graphs "http://ns.adobe.com/Graphs/1.0/">
	<!ENTITY ns_vars "http://ns.adobe.com/Variables/1.0/">
	<!ENTITY ns_imrep "http://ns.adobe.com/ImageReplacement/1.0/">
	<!ENTITY ns_sfw "http://ns.adobe.com/SaveForWeb/1.0/">
	<!ENTITY ns_custom "http://ns.adobe.com/GenericCustomNamespace/1.0/">
	<!ENTITY ns_adobe_xpath "http://ns.adobe.com/XPath/1.0/">
	<!ENTITY ns_svg "http://www.w3.org/2000/svg">
	<!ENTITY ns_xlink "http://www.w3.org/1999/xlink">
]>
<svg 
	 xmlns:x="&ns_extend;" xmlns:i="&ns_ai;" xmlns:graph="&ns_graphs;" i:viewOrigin="15.7588 131.7412" i:rulerOrigin="0 -1" i:pageBounds="0 148.4014 391.1807 1"
	 xmlns="&ns_svg;" xmlns:xlink="&ns_xlink;" xmlns:a="http://ns.adobe.com/AdobeSVGViewerExtensions/3.0/"
	 width="352.013" height="115.968" viewBox="0 0 352.013 115.968" overflow="visible" enable-background="new 0 0 352.013 115.968"
	 xml:space="preserve">
	<metadata>
		<variableSets  xmlns="&ns_vars;">
			<variableSet  varSetName="binding1" locked="none">
				<variables></variables>
				<v:sampleDataSets  xmlns="&ns_custom;" xmlns:v="&ns_vars;"></v:sampleDataSets>
			</variableSet>
		</variableSets>
		<sfw  xmlns="&ns_sfw;">
			<slices></slices>
			<sliceSourceBounds  x="15.759" y="15.773" height="115.968" width="352.013" bottomLeftOrigin="true"></sliceSourceBounds>
		</sfw>
<?xpacket begin='﻿' id='W5M0MpCehiHzreSzNTczkc9d'?><x:xmpmeta xmlns:x='adobe:ns:meta/' x:xmptk='XMP toolkit 3.0-29, framework 1.6'>
<rdf:RDF xmlns:rdf='http://www.w3.org/1999/02/22-rdf-syntax-ns#' xmlns:iX='http://ns.adobe.com/iX/1.0/'>

 <rdf:Description rdf:about=''
  xmlns:pdf='http://ns.adobe.com/pdf/1.3/'>
 </rdf:Description>

 <rdf:Description rdf:about=''
  xmlns:tiff='http://ns.adobe.com/tiff/1.0/'>
 </rdf:Description>

 <rdf:Description rdf:about=''
  xmlns:xap='http://ns.adobe.com/xap/1.0/'
  xmlns:xapGImg='http://ns.adobe.com/xap/1.0/g/img/'>
  <xap:CreateDate>2014-09-28T06:46:52Z</xap:CreateDate>
  <xap:ModifyDate>2014-09-28T06:46:52Z</xap:ModifyDate>
  <xap:CreatorTool>Illustrator</xap:CreatorTool>
  <xap:Thumbnails>
   <rdf:Alt>
    <rdf:li rdf:parseType='Resource'>
     <xapGImg:format>JPEG</xapGImg:format>
     <xapGImg:width>256</xapGImg:width>
     <xapGImg:height>84</xapGImg:height>
     <xapGImg:image>/9j/4AAQSkZJRgABAgEASABIAAD/7QAsUGhvdG9zaG9wIDMuMAA4QklNA+0AAAAAABAASAAAAAEA&#xA;AQBIAAAAAQAB/+4ADkFkb2JlAGTAAAAAAf/bAIQABgQEBAUEBgUFBgkGBQYJCwgGBggLDAoKCwoK&#xA;DBAMDAwMDAwQDA4PEA8ODBMTFBQTExwbGxscHx8fHx8fHx8fHwEHBwcNDA0YEBAYGhURFRofHx8f&#xA;Hx8fHx8fHx8fHx8fHx8fHx8fHx8fHx8fHx8fHx8fHx8fHx8fHx8fHx8fHx8f/8AAEQgAVAEAAwER&#xA;AAIRAQMRAf/EAaIAAAAHAQEBAQEAAAAAAAAAAAQFAwIGAQAHCAkKCwEAAgIDAQEBAQEAAAAAAAAA&#xA;AQACAwQFBgcICQoLEAACAQMDAgQCBgcDBAIGAnMBAgMRBAAFIRIxQVEGE2EicYEUMpGhBxWxQiPB&#xA;UtHhMxZi8CRygvElQzRTkqKyY3PCNUQnk6OzNhdUZHTD0uIIJoMJChgZhJRFRqS0VtNVKBry4/PE&#xA;1OT0ZXWFlaW1xdXl9WZ2hpamtsbW5vY3R1dnd4eXp7fH1+f3OEhYaHiImKi4yNjo+Ck5SVlpeYmZ&#xA;qbnJ2en5KjpKWmp6ipqqusra6voRAAICAQIDBQUEBQYECAMDbQEAAhEDBCESMUEFURNhIgZxgZEy&#xA;obHwFMHR4SNCFVJicvEzJDRDghaSUyWiY7LCB3PSNeJEgxdUkwgJChgZJjZFGidkdFU38qOzwygp&#xA;0+PzhJSktMTU5PRldYWVpbXF1eX1RlZmdoaWprbG1ub2R1dnd4eXp7fH1+f3OEhYaHiImKi4yNjo&#xA;+DlJWWl5iZmpucnZ6fkqOkpaanqKmqq6ytrq+v/aAAwDAQACEQMRAD8A9U4q7FXYq7FXYq7FXYq7&#xA;FXYq7FXYq7FXYqx/z7qN5p/le7ubOT0pxwUOADszBT9oEdDhHNx9VMxgSHhVtrusvOitezFT1HM+&#xA;GWU6MZZXzex/mveXVr5WrbStEZZvSkKEjkjQyclNOxpkI83ca6RENnjmgTzNrNmrOSPVTYn/AChk&#xA;y6fEfUH0rlT0jsVdirsVdirsVdirsVdirsVdirsVdirsVdirCNR/Nry5Z3klv6c04SlJUACmorsG&#xA;KnbpuMlwuFPXQBpkHlnzNYeYLJ7q0VkEb8HjkpyGwIOxOxrgIpvw5hkFhN8DcxvzP5+0Ly9OltdF&#xA;5bphyaGIVKr2LE0G+EC3GzaqOM0ea3yv580/zHdyW9lbTKIk5ySuFCjegGxO5xIpcOpGQ0AmWveZ&#xA;9F0KAS6lcCIt/dwj4pHp/Ko3+npiBbZlzRgPUWET/ndpyyEW+mySR9meQIfuCP8AryXA4R7RHQJr&#xA;o35s+X791juUeydv2iecY+ZADD/gcBi249dCXPZmkcscsayROHjcVR1IKkHuCMi5gNsT178zfL+j&#xA;6g1jIsk8sY/emICisGKlTyI3FMkIuLl1kIGky8rebbHzHDPLZxSRpAVDepTflXpQn+XARTZgzjJy&#xA;Ta9vbWxtZLq6kEVvEAZJCCQATTtU9TgbZSERZYMv5y+XWYKLa4JJoBRP+aslwuF/KEO4oD8w/Pui&#xA;3WjPpUAd7i4SKUkABUPKpRq9xTtthiGvV6qJjwh5RauqTozGijqfoybq483o3njz9pfmPQvqlnDL&#xA;G0cvqs0nGlBG602J/nyAFOw1OqjkjQYL5e/47Vn/AMZU/WMkXCxfUHsmvfmx5b0yZre2LahOhoxh&#xA;IEQI7epvX6AcgIu3y66EdhugNO/ObSriYJdWT26E05JIJCPoKx/hjwsIdoRJ3DPrK9tL22jurSVZ&#xA;reUVSReh/t8RkXOjISFhj3nn8wNJ8nQ2suoQzTC7LiMQhSR6fGpPIr/OMIDsdD2fPUkiJArvQ/kf&#xA;8z/Lvm+ae2sBLDdwL6jQTKATHUDkCpI6tSmJDPXdl5dMAZUQe5l+B1rAvN35yeXPLOsyaVd29xPP&#xA;EFLtCEKgsoam7A9GGGnb6TsbLnhxxIAZH5R826T5p0kanphf0uZjkjkXiyOAGKnsdmG4wOFq9JPT&#xA;z4JsHuf+chfKltcSQSWN5zjYq1BHSo/2WGnax9ns0hYMUXpP59+Qr6ZYZ5J7BmNOdxH+7qTt8SF6&#xA;fSMaas3YGogLFS9z0SGaGeFJoXWWGRQ8ciEMrKwqGUjYgjA6aUSDR5r8UPPfM/52eWPL+s3GlXFv&#xA;cTzWxCvJCEKcqAkCrA7E0+eGnc6XsTLmgJggAsn8oecNH816V+kdMZvTVvTlikHF0cAGhH09RgcD&#xA;WaOennwzTvFxXhf5paD+jvMEk0a0guv38dOnxn4x9D1+/LIl0etxcM770R+UuvfUtbFlI1Ib0CE1&#xA;/nrWM/fVfpxkGWhy8Mq73s15dwWdpNdTtxhgRpJG9lFTlbuZSAFl8169q0+r6xdahNu9xIWA60Xo&#xA;qj5DbLQHm8szORJeoaFNB5G8g/pKZA2pajR4oj1LMP3an/JVfiPzpkTuXZ4iMGLiPMvK9Q1DUdX1&#xA;B7q7ke5vLhuvUknYKoHbsAMm6uczM2dyyO3/ACr85S24mNmI+Q5CNnjD091LCh9jkeIOSNFkIumO&#xA;6jpeoaXctDdRtDNGaMGBUg5K3HnAxNFnn5WecZre+TSbp62ty3GOp+xKfslfZzsR45CQc7Ragg8J&#xA;5Fi/n7/lLdS/4zSf8TOSjycXVf3hegfkn/xzNQ/14/8AjfIzc/s76Syrz5/yiWo/6if8nFyI5uXq&#xA;v7svni3/AL+P/WX9eWvPDmy7zJ5L1pLY63IipYNHGyvyUkhwOPwg175EFy82nlXF0YeiM7hF3Y9M&#xA;k4gDMNW8i6roGgSXmoMqPJN6KQrRqho2blyUkfsUpkbty8mmljhZYcCR0NMk4jK9L/LPzVqOnJfx&#xA;24SGVecKOyq7r2IUkUr2rgMg5UNHkkLpjd7ZXFlcNBOpSVCQykEEEGhBB6EYXGlEg0XqX5MatPL9&#xA;c092LIFEyqT0ZSFYj/WDLX5ZCQdp2fkJsMP/AOcjtR9TXNPsQaiC3DkeDSO1R9yrgD6H7OY6xyl3&#xA;lhP5W+YP0F52066duNvJJ6FwSaD05fgJP+rWuEu07V0/i4JDrzHwfWN5dQ2lpPdznjDbxtLK3gqK&#xA;WY/cMg+ewgZEAcy+N/NOsTavr17qE395cSu7DsCzE0HsK0yb6XpcIx4xEdA9m/5xt1Dnp2r2BP8A&#xA;dvFMi1/mDBtvoXIl5n2kx+qMve8U1ZA+u3CHYNOVJ+Zpknp8JrGPcyrz1+Vl15W0aw1YXyXdve8Q&#xA;U4lHRmTmO55DAC4Gh7VGecoVRizz/nHLzBfyxahoczmS0gX6xahjX06sA6r7MWrT+uJdR7R6eIMc&#xA;g5nYvXdf1eHR9FvNTm3S0iaTj/MwFFX/AGTUGRed0+E5JiA6l8catez6hqNzdysZJJXZ3fxLNUt9&#xA;JNcm+lYoCEREPSv+ce/Mv1HzLPo0rUg1OP8Adg/7+iqy/evIYC6P2h03HiExzj9xfRmReLYf+aGh&#xA;jUfLrXCrWaxJk2G/pts/3bN9GSiXE1uPihfc8Os55LS8SRWKOjfaHYg7H6DljpImi9N/MLzul15S&#xA;sLe3alxqah7oKfsrGeLLT3kG3yyERu7LVam8YA6sK8i+XzrnmO2tWWtuh9W5P/FabkfT0yRLhabF&#xA;xzA6Mq/Oq6Y6jY2SmkMMIcKOgZ2YHb5IMjByu0ZbgJV+Ulhb3PmuOWYBjbRvJEp/nAoD8xyrhlya&#xA;tDEHJv0e6ZW7xgf5uaTbT6EmoFQLi3cRl+5Rwdj8moR9OSi4OvgDG3jemTSQ30UkZ4upqD7jcfiM&#xA;sdPA0U28+Hl5r1BqEVmc0PUfGcA5Nuq/vC9B/JP/AI5mof68f/G+Rm5/Z30llXnz/lEtR/1E/wCT&#xA;i5Ec3L1X92Xzxb/38f8ArL+vLXnhze4ecf8AyWkf/GC1/wCNMrHN3eo/ufgHiVn/AL0x/P8Ahljp&#xA;Y83tf5wf8orH/wAxK/8AJmXK483da/8Au/j+t4zpFulxqdtA/wBmSRVP0nLC6bGLkA+nVVUUKoCq&#xA;oooHQAZS9M8N/Ny3SLzXKygD1VRzTxKAH/iOWR5Ok1wrImH5Kf8AHbuv+YaT/k5FjNn2d9R936nn&#xA;f51aj9d8/wCoUNVgZYVHh6aKhH/BKciH1fsXHw6ePmxLUdNutNlt2kUqJkWeEnupJoR92F2GPIJg&#xA;102e7+a/Pq3H5N2d2slbzU0S1l3+KsX98f8AZcKf7LI08npNBWtMekd/ny/Hk8HtNNuLu1u7pASt&#xA;qvqyt4LyC1/4J1GSetnkESB3vSP+cd9Q9DzfcWhPw3Vq6hf8pSr1+5DgLpPaLHeEHuLznWmZNaum&#xA;U0ZZSQfcHC7rCPQPcjNf85+Ydfigi1S6M8dsgjhSgVVUADZVAX9kVNKnGmrT6LHhJMBVvZf+ceIf&#xA;Lq6deS292JNZei3Fow4vHEp2Ir9oMepHTYZEvNe0Ry8QBHo6HvKv/wA5B+Zfqei2uiwvSW7b15wD&#xA;vwTZAfYtU/7HEMPZ7TcUzkPTb8fjq89/JjyXD5i1q4a8TlYQQP63zdSiCvjyPIf6uEu57a1pw4xw&#xA;/UT+Px5sUmj1Dyr5sZK+neaVdbEdKxPsR7bYXYRMdRh8pxfXmj6nb6rpVpqVuaw3cSSoOtOQrxPu&#xA;Dscg+cZsRxzMTzBRUsUcsTxSKGjkUq6noVYUIxaiLfOPm3RpNJ1u5tHrSNyqse69Vb6VIOWgvPZ8&#xA;fBIhKJJpJKc2J4ig9sLSS9r/ACi8vfo/Qm1GZaXGoGqV6iJfs/8ABHf7srkXdaDFwx4j1Sb86dLl&#xA;aez1BQShjMJI7MjFh94c/dhi09ow3BYN5P199E1mC9UVCN8a/wAykcWX6QdskQ4Ony8Ere9ad5o0&#xA;HULcTW97FQirRuyo6/6ysajK6d7DNCQsF5/+bHnPTbiyTRdOnS5kZxJdSxnkihQQE5DYk17dMlEO&#xA;BrtREjhG7BvJWiy6x5jtLRVLR8g9wewjX7RP0ZIlwdPj45gIz8yLVoPNt/yBHOQuK/5YDj/iWMeT&#xA;PVxrIU+/KTzJY6bPcWd7KIYrkLxkc0VXQsRU9gwc7+2CQb9DmESQerL/AMyfMelQeVriBLqKW5u+&#xA;CQRI6sxAcMWoD0ovXIxG7mazNEYyL3LxHT4ZJ76CGJS0kjhUUdSSdhljpIizT3X8xIRD5GnhBqIx&#xA;Clf9VlGVx5u81YrFTwmz/wB6Y/n/AAyx0ceb2v8AOD/lFY/+Ylf+TMuVx5u61/8Ad/H9bx7y9/x2&#xA;7P8A4yp/xIZMuoxfUH0zlT0jxH84f+Uo/wCeSfqyyPJ0uv8ArRf5LMF1q7ZjRRayEk9APUixmz7O&#xA;+s+79TxnX7w6n5ou7o7/AFm4aU/7Ny5/XgfYtPDgxAdwenfnR5R+qeT/AC3qMcdJLG3isrsgeKc1&#xA;P/B8/vwB0XYus4s2SJ/iJI/HyeSyavdyaTFpjuTbQSPLEnYNIFD/AH+muF6IYQJmfUvWvy/8oCT8&#xA;qfMl9KlZLyFhFUb8LX981Pm4p/scBed7Q1lazHEdD9+3497CPymv/qH5g6Q5NOc4gP8Az2rF/wAb&#xA;4l2va2Pj00vdfy3SHUv+Ugm/5iP+NsLl4v7se59C+a/IXkVvIM17PYQWlzFYiWG7iAif1/TqgqKc&#xA;ub7UPWuRt43Sa/UfmBESJHFy8reIflvqV1pnnnS5rZ6E3CQyU6NHIwRwfmDki9V2ljGTTyB7rRH5&#xA;qeZf0/5vvLmNuVtG3pW/h6cfwqR/rU5fTgDDsrTeDhA69Uq0Hzr5m0GGSHSb57SOUgyBKbla0rUd&#xA;qnDTfn0WLMbnG0Bq+sajrF89/qMpnu5aepMQAWoKCtPYYt2HDHHHhiKD3/8A5x78y/XvLk+izPWb&#xA;TX5Qg/75lJO3+q9fvyJeQ9odNw5RkHKX3h6vgeeeU/nVZWaSWV4GAuZlaNk7kRkFW/4YjJwdV2jE&#xA;bHqwDyvokuta5a6elQJXHqMN+KDdj9AyRLg4cfHIB9JQQRQQRwQqEiiUJGg6BVFAMqeiAoUhNb0e&#xA;z1jTpbG6H7uTdXH2kYdGX3GILHJjExReE+afJGr6Jct6kRa3J/dzqP3bDtQ9j/knLQXRZ9NKBY8f&#xA;rSjj8YHhvTC0bo/RfLOt61ciDT7V5TX45COMaA92c7DASzx4ZTNAPcvJPkqz8s2JUMJ9QnAN1c0o&#xA;Nv2Er0Ufj19hWTbu9NpxjHmkv5m+Sp9WjXUrCP1LqJeM8SirMq7qyjuRWlO4wxLTrNOZ+oc3jctp&#xA;d20hVkZWU0JFQQR+rLHTmJCxYrmaQKqPJIxooALEk9sVol6t+Wn5c3VncJrWsx+lKgrZ2jfaUn9u&#xA;QdiOw+/ISk7TR6Qg8UmTfmYK+T7sDryj/wCJjIx5uTrP7svDdL06+uL+GGCB5JXJCoqkk7E7DLXS&#xA;QgSaAex/m+CfK0QAqTdKAP8AnjLlcebuNf8AR8f1vJvLGn30+u2aQwPI4kDcVUk0U1J+gZMupwwJ&#xA;kKfSOVPRvE/zejkfzR8ClqRJWnyyyPJ0uvHrWfl/b6na6brt/FayuBp9zDAyIWrO3plEFAanvTGT&#xA;l9i47zC/pv8ASHlfljTJtR822Vq8bAXN0kZqp6O4Xv4A4H1jVZRDCT3B9S+e9BGu+UtT03jyklhZ&#xA;oB39WP40p8ytMgHgdBn8LNGXm+R49LvBqAtJYJElWT03jZSGDA0KkEde2TfRTljw8QL690Ly/Dp/&#xA;lS10NgOKW3oz03BeRT6p+lmJyD5xn1BnmOTzv9T5RFvqOieaFMsEkVxZ3AcqyspBB5DqPpGTfQeK&#xA;OXFsdiENrlvdJrF0TFIjepyAKsDRviB6eBri2YJDgG7p9Q8xXypFcT3M6rRUEjM1NqUFfbFY48Ud&#xA;wAGV6D5G13TdFuvM15aTQx26f6IvBubO3SQACoWMDmWO1QBgt1+o12OcxiiQb5/jz5Uknk/QLrX/&#xA;ADVZ2PFlNzKOTEfZXqzb/wAqAn6MJcrWagYcJl3B9RL5C8mKoX9C2hoKVMSk/fTIW8F+fz/z5fNj&#xA;n5iflnoF95Svl0nS4INRgX17ZoIwrkx7so4ip5LUU8cILndndp5I5o8ciYnY28W/KbXLny554tGu&#xA;EeG3uGNpeBgV4hzxq1enB6E/LCXp+1sAzac1uRuH1VkXz989/mF5i/TfmSeWNuVpb/ubbw4r1b/Z&#xA;Gpy2IdBqsvHM9zOvya8vejZT63Mv7y4Po2xP++1Pxn6W2+jIyLm9n4qHEer0rIOydirTorqVcBlO&#xA;xUioIxVAHy75fLczploX68jBHWvz44ba/Ch3D5I6KGKGMRxIsca9EQBQPoGBmBS7FLsVQt1pOl3b&#xA;cruzguG/mljRz/wwOLGUInmHWuk6VaNytLOC3b+aKNEP/CgY2sYRHIIrFk0yK44sAw8CKjFVqwQK&#xA;QyxqCOhAAOKKC50RxR1DDrQiv68U0tWCFDyWNVPiAAcUUF+KVjQwuavGrHxIBOKKC5ERBRFCjrQC&#xA;n6sU0pra2qsGWFAw3BCgEfhiy4z3quLFTNrbFuZiQsTUsVFa/PFlxHvVMWKm9tbOxZ4kZj1YqCfx&#xA;xZCRHVprW1Y1aFCfEqD/AAxXjPe2ltbo3JIkVh0KqAfwxUyJ6r2VWUqwBU7EHcHFisS2t0bkkSKw&#xA;6FVAP4YsjInqqYsXYqpG0tCSTDGSdySo/piy4z3ofWrS8vNKubWzlEE86GNZmqeIbZjt341piGrJ&#xA;EmJAebQ/klJ66G41EGHkDKEB5Fa/FxJFK5PjdaOzt9y9O0+xt7CxgsrYcYLdBHGD1oopU0pue+Qd&#xA;nCIiKCIxZIa9trufh9XvHtONeXBI35VpSvNW6e2LGQJ5GkL+jNW/6vE3/Im3/wCaMLDgl/O+536M&#xA;1b/q8Tf8ibf/AJoxXgl/O+536M1b/q8Tf8ibf/mjFeCX877nfozVv+rxN/yJt/8AmjFeCX877nfo&#xA;zVv+rxN/yJt/+aMV4Jfzvud+jNW/6vE3/Im3/wCaMV4Jfzvud+jNW/6vE3/Im3/5oxXgl/O+536M&#xA;1b/q8Tf8ibf/AJoxXgl/O+536M1b/q8Tf8ibf/mjFeCX877nfozVv+rxN/yJt/8AmjFeCX877nfo&#xA;zVv+rxN/yJt/+aMV4Jfzvud+jNW/6vE3/Im3/wCaMV4Jfzvud+jNW/6vE3/Im3/5oxXgl/O+536M&#xA;1b/q8Tf8ibf/AJoxXgl/O+536M1b/q8Tf8ibf/mjFeCX877nfozVv+rxN/yJt/8AmjFeCX877nfo&#xA;zVv+rxN/yJt/+aMV4Jfzvud+jNW/6vE3/Im3/wCaMV4Jfzvud+jNW/6vE3/Im3/5oxXgl/O+536M&#xA;1b/q8Tf8ibf/AJoxXgl/O+536M1b/q8Tf8ibf/mjFeCX877nfozVv+rxN/yJt/8AmjFeCX877nfo&#xA;zVv+rxN/yJt/+aMV4Jfzvud+jNW/6vE3/Im3/wCaMV4Jfzvud+jNW/6vE3/Im3/5oxXgl/O+536M&#xA;1b/q8Tf8ibf/AJoxXgl/O+536M1b/q8Tf8ibf/mjFeCX877kzwNrsVdirsVaZlRS7kKqirMdgAOp&#xA;JxVhc/5grda35Yj0KSG80TW1vnubkxzeqq2Uav8AulqpqS3GhQnFWQ+W/M+i+Y9OGoaRcCe35NG4&#xA;IKujr1V0ajKfniqaYq7FXYq7FXnnmH80X0vzudIhtnutHsLf1NZube3muZI5nBaONTGeKfDRmLD8&#xA;RiqaaR+aGg6rcWsVpZ6kUvGRYLl7KVYDzNFYyU4hd+uKsvxV2KuxV2KsM8zfmPN5fN5Ld+XdRfT7&#xA;I0fUUEIgYEgBlLSA7k0G2KpHpP5r+Y0vW07WPLN2+oXTyXGlwWgiUvZLQIzK8zVbryINPDFWf6Fq&#xA;lxqdgLq40+40yQsy/VboKJAB+18DMKH54qmGKuxV2KpH5w8z2vl7Rp7tprQXojdrK1u7lLUTugqU&#xA;Vn6mh6fqrXFWJ2/5v6e99Z3k13p0WgTaa9zeR/WoGvbe8Q19IoJayBlFFVE5VxVPvy984f4j0WO4&#xA;urqwfU3BmksrGZZXhhc/uhMoZyr0+174qyrFXYq7FUp8268fL/ly/wBaEH1r6jF6v1fn6fOhApz4&#xA;vTr4YqwqP853j1ibSL/QLlLz7Fqunt+kWklWJZpF9NFhP7tJFLUJ+jFVXy7+a940Gm23mnQdR0vV&#xA;NQu1skl+pyw2ZkmkKwgPM1a8PtDfoTir0bFXYq7FXYqx/wA92PmHUfLlxpuhGNLq/K209xI3H0re&#xA;U8ZpEFPiYJ0FR4jfFWM69b6b5a8z+SaI1tomi2epJNdFW9KJPq8YT1JAOIZyh67s3ucVd+W2kXWo&#xA;6nceeih0mHWVkB0qEER3MayH0LqZWrwkK1+z9r7VRyIKr0bFWN+drXzhcWtsPLM6wTq5NwWKCqU2&#xA;+2G74RTjamOQgcBZFEHESCQ1kCjmfem+ByAsvLiC2tJ7m4f07eCNpJpN/hRFLM22+wGKXgVvrXlS&#xA;0vvMFhpHm+ex0WW3+swOfTkku7ucP6wleaJpCdlXtt9+Kpz5A83eWNJ0bRJ7/wA8SBLa2UXGiOkb&#xA;RqTEUEf7uL1f3bNX7R6Yq9pxVA67HqUmiahHpbiPU3tplsZDQBZzGREdwRs9OuLbgMRkiZ/TYv3d&#xA;Ur8hW3m628vJF5rnW41f1XLSKUI9Mn4BVAo/DEuRr5YZZLwioUyLFwni/wCcsMs/mieP6qb23h8v&#xA;yXEsT3EsMUQS7Cm4ZInjMpRXNE719sVY1qFhp/1i6/RWiXgkg8vzXc93dzXllPCIkYpdR87uYSxP&#xA;INouPb54q938oknypopJLE2FtVmJJJ9FdyTucVTbFWMaLaec4/NeozalcLJoLrJ9RhBQlSZFKbBQ&#xA;32OXU4TVONjjk8QmR9PRk+ByWA/mbN5JS+0hvMGpGx1CJLv9ERvbG7t2lniEPqTRelIH9IsrKpZd&#xA;8VeW65rC2l7Z2ela3pOoPdcjLPLoENtDCqU3Y+nNI1a/socVejflheeSptXlWx1CK780fUgmppaW&#xA;r2dsY4paiRIzDElazKp338MVelYqwvz3Y/mJc6ppD+VbtbexjY/pRGaMF15oRTmrH7PLphDs9Bk0&#xA;0YT8YXL+FmmB1jE/zY/8lzr/APzCn/iQxV5X+lbW2svMhs7Ya1o2l3sWqSalBetYzrJfwhXhWeNH&#xA;Z6OOBUdqYqyjyPDqNx5jl4aDLGml3JtL+S81ma/WKTisnOOGWPiXWoowPjir1jFXYq7FXYqxf8w/&#xA;8b/oNf8ABtf0t6or/vPx9Oh5V+sfDWtKUxV59p/6K+v2v/K0f0t9d5j6t+lvT/Q/q/5H1b9xy8fU&#xA;2pir2hOHBeFOFBxp0p2pTFW8VdirsVdiqA1//jhaj/zCzf8AJtsVSX8r+f8AyrrQPXp/vFH1pThT&#xA;4f8AhaYqynFXYq7FXYq8280fon/lZV5+nafoP/Cc/wBd/vK+l9dX1f7r4/s0+zvirGvNn+Ff0Nqf&#xA;+AP+Ov8Aoyf9K+t9bp+huDetx+tfBXnx4cfi602rir1nynw/wto3CvD6jbca9aeitK0xVNcVdirs&#xA;VdirzWX/ABF/yu2w/SPD9F/VLv8AQ/Hjz4cI/V9Sn+X9n2xV6VirsVdirsVYn+bH/kudf/5hT/xI&#xA;YqwbVvqP+IbH9Let/gP1bb0vqX1X6l+ktq/XPQ/e8edP7z9r2xVLLj9O/wDK0Ln0/rf+F/8AEUH1&#xA;j6rx9T6/6G1eH730uH2+3H3xV//Z</xapGImg:image>
    </rdf:li>
   </rdf:Alt>
  </xap:Thumbnails>
 </rdf:Description>

 <rdf:Description rdf:about=''
  xmlns:dc='http://purl.org/dc/elements/1.1/'>
  <dc:format>image/svg+xml</dc:format>
 </rdf:Description>

</rdf:RDF>
</x:xmpmeta>
                                                                                                                                                                                                                                                                                                                                                                                                                                                                                                                                                                                                                                                                                                                                                                                                                                                                                                                                                                                                                                                                                                                                                                                                                                                                                                                                                                                                                                                                                                                                                                                                                                                                                                                                                                                                                                                                                                                                                                                                                                                                                                                                <?xpacket end='w'?>
			</metadata>
		<g id="图层_1" i:layer="yes" i:dimmedPercent="50" i:rgbTrio="#4F008000FFFF">
			<path i:knockout="Off" fill="#479384" d="M49.756,80.944h302.256H49.756z"/>
			<line i:knockout="Off" fill="none" stroke="#479384" stroke-miterlimit="10" x1="49.756" y1="80.944" x2="352.013" y2="80.944"/>
			<g i:knockout="Off" opacity="0.8">
				<g>
					<rect x="0" y="2.062" i:knockout="Off" fill="none" width="213.102" height="80.944"/> 
					<polygon i:knockout="Off" fill="#479384" points="0,19.898 11.848,19.898 23.85,48.89 37.093,19.898 48.975,19.898 
						20.036,83.006 8.063,83.006 17.563,62.655 "/>
					<path i:knockout="Off" fill="#479384" d="M72.061,18.709c4.359,0,8.458,1.091,12.295,3.27c3.835,2.181,6.83,5.139,8.981,8.876
						c2.151,3.738,3.228,7.772,3.228,12.104c0,4.359-1.084,8.436-3.25,12.23c-2.165,3.793-5.117,6.76-8.854,8.896
						c-3.736,2.138-7.856,3.207-12.357,3.207c-6.625,0-12.282-2.357-16.966-7.071c-4.687-4.714-7.03-10.439-7.03-17.179
						c0-7.219,2.648-13.235,7.942-18.049C60.693,20.805,66.03,18.709,72.061,18.709 M72.252,29.624
						c-3.602,0-6.602,1.252-8.997,3.758c-2.398,2.506-3.595,5.712-3.595,9.619c0,4.021,1.184,7.276,3.552,9.769
						s5.367,3.736,8.997,3.736s6.65-1.26,9.062-3.779c2.41-2.52,3.615-5.762,3.615-9.726s-1.185-7.184-3.552-9.661
						C78.966,30.862,75.939,29.624,72.252,29.624"/>
					<path i:knockout="Off" fill="#479384" d="M100.774,19.898h11.721v22.253c0,4.332,0.298,7.341,0.893,9.024
						c0.597,1.685,1.555,2.994,2.874,3.929c1.32,0.935,2.945,1.401,4.875,1.401c1.93,0,3.569-0.461,4.917-1.379
						c1.349-0.92,2.349-2.273,3.001-4.057c0.483-1.331,0.724-4.176,0.724-8.536V19.898h11.594v19.578
						c0,8.068-0.637,13.589-1.911,16.563c-1.557,3.624-3.851,6.405-6.879,8.345c-3.031,1.938-6.88,2.909-11.552,2.909
						c-5.069,0-9.166-1.133-12.294-3.397c-3.129-2.265-5.33-5.422-6.605-9.472c-0.906-2.801-1.358-7.898-1.358-15.288V19.898z"/>
					<polygon i:knockout="Off" fill="#479384" points="150.932,2.869 162.525,2.869 162.525,19.898 169.406,19.898 169.406,29.878 
						162.525,29.878 162.525,66.104 150.932,66.104 150.932,29.878 144.987,29.878 144.987,19.898 150.932,19.898 "/>
					<path i:knockout="Off" fill="#479384" d="M172.17,2.062h11.505V24.57c2.263-1.954,4.542-3.419,6.835-4.396
						s4.614-1.466,6.965-1.466c4.587,0,8.451,1.586,11.594,4.757c2.689,2.746,4.034,6.782,4.034,12.104v30.534h-11.424V45.847
						c0-5.351-0.255-8.974-0.765-10.872c-0.509-1.896-1.38-3.312-2.611-4.247c-1.231-0.934-2.754-1.401-4.565-1.401
						c-2.351,0-4.367,0.779-6.052,2.336s-2.853,3.68-3.501,6.37c-0.341,1.387-0.51,4.558-0.51,9.512v18.559H172.17V2.062z"/>
				</g>
			</g>
			<g i:knockout="Off" opacity="0.8">
				<g>
					<rect x="2.464" i:knockout="Off" fill="none" width="213.103" height="80.943"/> 
					<polygon i:knockout="Off" fill="#479384" points="2.465,17.836 14.313,17.836 26.315,46.827 39.558,17.836 51.44,17.836 
						22.501,80.943 10.528,80.943 20.028,60.593 "/>
					<path i:knockout="Off" fill="#479384" d="M74.526,16.646c4.359,0,8.458,1.091,12.295,3.27c3.835,2.181,6.83,5.139,8.981,8.876
						c2.151,3.738,3.228,7.772,3.228,12.104c0,4.359-1.084,8.436-3.25,12.23c-2.165,3.793-5.117,6.76-8.854,8.896
						c-3.736,2.138-7.856,3.207-12.357,3.207c-6.625,0-12.282-2.357-16.966-7.07c-4.687-4.715-7.03-10.44-7.03-17.18
						c0-7.219,2.648-13.235,7.942-18.049C63.158,18.743,68.495,16.646,74.526,16.646 M74.717,27.562
						c-3.602,0-6.602,1.252-8.997,3.758c-2.398,2.506-3.595,5.712-3.595,9.619c0,4.02,1.184,7.276,3.552,9.769
						s5.367,3.736,8.997,3.736s6.65-1.26,9.062-3.779c2.41-2.52,3.615-5.762,3.615-9.726s-1.185-7.184-3.552-9.661
						C81.431,28.799,78.404,27.562,74.717,27.562"/>
					<path i:knockout="Off" fill="#479384" d="M103.239,17.836h11.721v22.253c0,4.332,0.298,7.341,0.893,9.024
						c0.597,1.685,1.555,2.994,2.874,3.929c1.32,0.935,2.945,1.401,4.875,1.401c1.93,0,3.569-0.461,4.917-1.379
						c1.349-0.92,2.349-2.273,3.001-4.057c0.483-1.331,0.724-4.176,0.724-8.536V17.836h11.594v19.578
						c0,8.068-0.637,13.589-1.911,16.563c-1.557,3.625-3.851,6.405-6.879,8.345c-3.031,1.938-6.88,2.909-11.552,2.909
						c-5.069,0-9.166-1.133-12.294-3.397c-3.129-2.265-5.33-5.422-6.605-9.472c-0.906-2.801-1.358-7.898-1.358-15.288V17.836z"/>
					<polygon i:knockout="Off" fill="#479384" points="153.396,0.808 164.99,0.808 164.99,17.835 171.871,17.835 171.871,27.815 
						164.99,27.815 164.99,64.041 153.396,64.041 153.396,27.815 147.452,27.815 147.452,17.835 153.396,17.835 "/>
					<path i:knockout="Off" fill="#479384" d="M174.635,0h11.503v22.508c2.265-1.954,4.544-3.419,6.837-4.396
						s4.614-1.466,6.965-1.466c4.586,0,8.451,1.586,11.594,4.757c2.689,2.746,4.033,6.782,4.033,12.104v30.534h-11.423V43.784
						c0-5.351-0.255-8.974-0.765-10.872c-0.509-1.896-1.38-3.312-2.611-4.247c-1.231-0.934-2.754-1.401-4.565-1.401
						c-2.351,0-4.367,0.779-6.053,2.336c-1.684,1.557-2.852,3.68-3.502,6.37c-0.34,1.387-0.51,4.558-0.51,9.512v18.559h-11.503V0z"
						/>
				</g>
			</g>
			<g i:knockout="Off" opacity="0.8">
				<g>
					<rect x="220.284" y="19.16" i:knockout="Off" fill="none" width="131.409" height="46.988"/> 
					<polygon i:knockout="Off" fill="#BA1653" points="228.42,19.16 237.135,19.16 248.027,51.934 259.02,19.16 267.728,19.16 
						275.609,66.148 266.961,66.148 261.923,36.473 251.939,66.148 244.058,66.148 234.163,36.473 229.005,66.148 220.284,66.148 
						"/>
					<path i:knockout="Off" fill="#BA1653" d="M277.5,66.148V19.16h7.388c4.286,0,7.42,0.277,9.402,0.831
						c2.814,0.745,5.054,2.129,6.716,4.152c1.664,2.023,2.495,4.409,2.495,7.156c0,1.789-0.378,3.412-1.133,4.871
						c-0.757,1.459-1.987,2.827-3.689,4.104c2.853,1.342,4.94,3.02,6.26,5.032c1.321,2.012,1.981,4.391,1.981,7.139
						c0,2.641-0.683,5.047-2.048,7.219c-1.363,2.172-3.122,3.796-5.275,4.871c-2.152,1.076-5.127,1.613-8.922,1.613H277.5z
						 M286.443,27.688v9.904h1.957c2.18,0,3.799-0.458,4.857-1.374s1.587-2.162,1.587-3.738c0-1.469-0.502-2.634-1.507-3.497
						c-1.005-0.863-2.532-1.295-4.584-1.295H286.443z M286.443,45.577V57.62h2.242c3.716,0,6.221-0.469,7.511-1.405
						c1.293-0.938,1.939-2.301,1.939-4.089c0-2.024-0.759-3.62-2.275-4.792c-1.516-1.171-4.036-1.757-7.56-1.757H286.443z"/>
					<path i:knockout="Off" fill="#BA1653" d="M324.551,19.16h9.07l18.072,46.988h-9.296l-3.676-9.678h-19.173l-3.824,9.678h-9.294
						L324.551,19.16z M329.142,31.618l-6.305,16.131h12.571L329.142,31.618z"/>
				</g>
			</g>
			<g i:knockout="Off" opacity="0.8">
				<g>
					<rect x="218.147" y="17.654" i:knockout="Off" fill="none" width="131.409" height="46.989"/> 
					<polygon i:knockout="Off" fill="#BA1653" points="226.283,17.654 234.998,17.654 245.891,50.428 256.882,17.654 
						265.591,17.654 273.473,64.643 264.823,64.643 259.786,34.967 249.803,64.643 241.921,64.643 232.026,34.967 226.868,64.643 
						218.147,64.643 "/>
					<path i:knockout="Off" fill="#BA1653" d="M275.363,64.643V17.654h7.388c4.286,0,7.42,0.277,9.402,0.83
						c2.815,0.746,5.054,2.13,6.716,4.152c1.664,2.025,2.495,4.41,2.495,7.157c0,1.789-0.378,3.413-1.133,4.871
						c-0.757,1.458-1.987,2.827-3.689,4.104c2.853,1.342,4.939,3.019,6.26,5.032c1.321,2.011,1.98,4.392,1.98,7.139
						c0,2.641-0.682,5.047-2.047,7.219c-1.364,2.172-3.123,3.796-5.275,4.872c-2.152,1.074-5.127,1.612-8.922,1.612H275.363z
						 M284.307,26.182v9.904h1.957c2.18,0,3.799-0.458,4.857-1.373c1.058-0.916,1.587-2.163,1.587-3.738
						c0-1.47-0.502-2.636-1.507-3.498c-1.005-0.862-2.533-1.295-4.585-1.295H284.307z M284.307,44.071v12.043h2.242
						c3.716,0,6.22-0.468,7.512-1.405s1.938-2.301,1.938-4.09c0-2.023-0.758-3.619-2.273-4.791
						c-1.517-1.171-4.036-1.757-7.561-1.757H284.307z"/>
					<path i:knockout="Off" fill="#BA1653" d="M322.412,17.654h9.072l18.072,46.988h-9.296l-3.676-9.678h-19.173l-3.824,9.678
						h-9.295L322.412,17.654z M327.005,30.112L320.7,46.243h12.572L327.005,30.112z"/>
				</g>
			</g>
			<path i:knockout="Off" fill="#4D4D4D" d="M67.46,103.35c1.709,0.615,2.667,1.095,2.872,1.436c0,0.069-0.103,0.14-0.308,0.205
				c-0.41,0.274-0.684,0.549-0.82,0.821c-1.437,4.993-7.012,8.274-16.723,9.849c-0.274-0.89-0.959-1.677-2.052-2.359
				C60.688,112.959,66.365,109.643,67.46,103.35 M55.354,96.476c1.847,0.479,2.804,0.82,2.872,1.026
				c0,0.068-0.068,0.138-0.205,0.205c-0.41,0.41-0.718,0.82-0.923,1.23c-1.436,3.283-2.702,5.848-3.796,7.695
				c-0.479-0.342-1.299-0.65-2.462-0.924C52.959,103.315,54.464,100.238,55.354,96.476 M60.381,92.27
				c2.051,0.138,3.145,0.308,3.283,0.513c0,0.069-0.036,0.138-0.103,0.205c-0.48,0.685-0.719,1.711-0.719,3.078v10.054
				c0,1.164,0.068,2.052,0.206,2.667h-2.667v-0.103c0.135-0.82,0.205-1.675,0.205-2.564V95.654
				C60.586,93.741,60.517,92.612,60.381,92.27 M67.152,95.654c1.982,1.78,4.171,4.104,6.565,6.977l-2.154,1.847
				c-1.916-3.009-4.001-5.47-6.258-7.386L67.152,95.654z"/>
			<path i:knockout="Off" fill="#4D4D4D" d="M126.319,92.064c2.119,0.479,3.182,0.82,3.182,1.025l-0.206,0.205
				c-0.41,0.274-0.718,0.582-0.923,0.924c-0.411,0.685-0.719,1.23-0.924,1.641h9.849c2.051,0,3.317-0.066,3.795-0.205v2.36
				c-0.136,0-0.377-0.034-0.718-0.103c-1.026-0.067-2.018-0.103-2.975-0.103h-3.693v3.796h3.181c1.709,0,2.803-0.103,3.281-0.308
				v2.359c-0.341-0.138-1.47-0.205-3.384-0.205h-3.078v4.514h5.541c1.709,0,2.871-0.103,3.486-0.308v2.359
				c-0.957-0.205-2.119-0.308-3.486-0.308h-5.541v3.077c0,1.026,0.068,2.052,0.205,3.078h-2.461v-0.103
				c0.136-0.959,0.205-1.949,0.205-2.976v-3.077h-8.002c-1.301,0-2.498,0.068-3.592,0.205v-2.154
				c1.094,0.138,2.258,0.205,3.488,0.205h1.129v-2.873c0-1.847-0.068-3.077-0.205-3.692c1.436,0.138,2.735,0.205,3.899,0.205h3.283
				V97.81h-5.233c-0.89,1.368-2.019,3.043-3.386,5.026c-0.616-0.478-1.403-0.888-2.36-1.23
				C123.549,99.007,125.431,95.826,126.319,92.064 M131.655,103.452h-4.822v4.514h4.822V103.452z"/>
			<path i:knockout="Off" fill="#4D4D4D" d="M201.537,91.962c0.205,0.615,0.443,1.574,0.718,2.872h5.13
				c1.642-0.067,3.214-0.136,4.719-0.205v2.257c-0.754-0.136-2.326-0.205-4.719-0.205h-13.748c-1.436,0-2.871,0.069-4.308,0.205
				v-2.257c1.367,0.138,2.804,0.205,4.308,0.205h6.259c-0.205-0.752-0.548-1.503-1.026-2.257L201.537,91.962z M197.536,96.988
				c0.341,0.479,0.718,1.198,1.128,2.155l-1.949,0.82h5.232c0.067-0.067,0.136-0.17,0.205-0.308c0.615-0.821,1.06-1.676,1.334-2.566
				c0.272,0.07,0.648,0.173,1.128,0.309c0.889,0.206,1.299,0.344,1.231,0.411c0,0.068-0.138,0.171-0.41,0.308
				c-0.138,0.138-0.241,0.24-0.309,0.308c-0.615,0.616-1.061,1.129-1.333,1.539h2.976c1.846,0,2.975-0.067,3.385-0.205
				c-0.138,1.025-0.205,1.916-0.205,2.667v11.695c0,1.026-1.402,1.642-4.206,1.847c0-0.753-0.308-1.607-0.924-2.564
				c1.914,0.272,2.906,0.205,2.976-0.205v-11.593h-14.158v11.593c0,0.205,0.034,0.513,0.104,0.923c0,0.683,0.034,1.162,0.103,1.437
				h-2.564c0.205-0.41,0.308-1.197,0.308-2.359v-10.67c0-1.229-0.069-2.154-0.205-2.77c0.271,0.068,1.333,0.138,3.18,0.205h2.052
				c-0.138-0.547-0.548-1.265-1.23-2.154L197.536,96.988z M193.843,105.812c0.888-0.616,2.188-1.778,3.898-3.488l1.744,1.026
				c-1.095,1.025-2.429,2.189-4.001,3.487c0.136-0.066,0.033,0.036-0.308,0.308C194.971,106.667,194.525,106.222,193.843,105.812
				 M198.356,106.324h4.104c0.205,0,0.58-0.033,1.129-0.103h1.025l-0.103,1.642v2.873c0,0.889,0.034,1.471,0.103,1.743
				c-0.343-0.067-1.06-0.103-2.154-0.103h-4.104c-0.753,0-1.402,0.035-1.949,0.103c0.067-0.478,0.103-1.025,0.103-1.641v-2.976
				c0-0.683-0.035-1.23-0.103-1.642C197.159,106.291,197.809,106.324,198.356,106.324 M198.562,107.967 M198.562,110.736h3.897
				v-2.771h-3.897V110.736z M203.075,102.528c1.162,0.959,2.599,2.019,4.31,3.181l-1.642,1.538c-1.437-1.503-2.839-2.7-4.206-3.59
				L203.075,102.528z"/>
			<path i:knockout="Off" fill="#4D4D4D" d="M262.808,102.167h0.41c1.162,0.138,2.324,0.206,3.488,0.206h8.31
				c1.367,0,2.155-0.034,2.36-0.103v2.462c-1.437,0.273-3.353,0.923-5.746,1.949v0.923h5.643c1.367,0,2.669-0.067,3.898-0.205h0.411
				v2.463h-0.411c-1.229-0.137-2.462-0.206-3.693-0.206h-5.95v3.898c0.342,1.642-1.061,2.428-4.206,2.359
				c-0.205-1.025-0.582-1.846-1.13-2.462c2.258,0.342,3.318,0.17,3.182-0.513v-3.283h-7.078c-0.821,0-1.882,0.069-3.181,0.206
				h-0.615v-2.463h0.718c1.367,0.138,2.394,0.205,3.078,0.205h7.078v-1.846c1.231-0.479,2.667-0.991,4.31-1.54h-6.977
				c-1.164,0-2.359,0.069-3.591,0.207h-0.308V102.167z M276.247,92.011c1.298,0.479,2.188,0.89,2.667,1.231
				c0,0.068-0.103,0.138-0.308,0.205c-0.344,0.274-0.581,0.513-0.718,0.718c-0.822,1.095-1.642,2.326-2.462,3.693h2.872
				c0.615,0,1.367-0.033,2.257-0.103h0.615c-0.068,0.274-0.103,1.095-0.103,2.463c0,0.479,0.034,1.128,0.103,1.948v0.514h-2.359
				c0.067-0.137,0.103-1.129,0.103-2.976h-17.748c0,2.121,0.034,3.181,0.103,3.181h-2.462v-0.41
				c0.137-0.752,0.205-1.504,0.205-2.257c0-1.368-0.035-2.223-0.103-2.565c0.478,0.069,1.367,0.138,2.667,0.205h11.695
				C274.503,96.218,275.493,94.268,276.247,92.011 M263.628,93.037c0.684,0.615,1.539,1.743,2.563,3.385l-2.153,0.924
				c-0.753-1.367-1.573-2.461-2.462-3.283L263.628,93.037z M270.296,92.113c0.273,0.41,0.752,1.711,1.437,3.898l-2.359,0.41
				c-0.274-1.025-0.718-2.359-1.334-4.001L270.296,92.113z"/>
			<path i:knockout="Off" fill="#4D4D4D" d="M327.926,93.654c0.683,0.138,1.606,0.205,2.771,0.205h2.461
				c1.231,0,2.188-0.067,2.873-0.205c-0.479,1.025-0.924,2.257-1.334,3.693c-0.479,1.505-0.959,2.977-1.437,4.411
				c1.504,2.121,2.258,4.001,2.258,5.643c-0.139,2.121-1.506,3.318-4.104,3.591c0.067-1.094-0.308-1.982-1.129-2.667
				c2.188,0.479,3.214-0.067,3.078-1.642c-0.069-1.642-0.821-3.181-2.257-4.617c0.478-1.298,1.23-3.521,2.257-6.668h-3.181v4.206
				v13.337c0,1.026,0.034,1.914,0.103,2.667h-2.257c0.067-0.753,0.103-1.607,0.103-2.564V99.81v-3.796
				C328.131,94.988,328.063,94.203,327.926,93.654 M335.929,104.427c0.271,0,0.923,0.035,1.949,0.103h0.923h6.976h1.437
				c1.367-0.067,2.222-0.103,2.564-0.103v1.948c-0.479-0.066-1.778-0.103-3.898-0.103h-0.718v6.054
				c-0.068,0.685,0.411,1.025,1.437,1.025c1.093,0.137,1.744-0.888,1.949-3.077c0.888,0.753,1.642,1.23,2.257,1.436
				c-0.479,2.463-1.539,3.625-3.181,3.489h-1.847c-1.846,0.136-2.702-0.514-2.564-1.95v-6.977h-2.154
				c-0.138,2.601-0.582,4.55-1.333,5.849c-0.959,1.23-2.703,2.324-5.232,3.282l-0.103-0.103c-0.615-0.82-1.267-1.472-1.949-1.949
				c4.514-0.205,6.735-2.564,6.668-7.079h-0.411h-0.922c-0.96,0.069-1.575,0.103-1.847,0.103V104.427z M343.417,92.32l0.924,3.181
				h3.897c0.821,0,1.539-0.033,2.155-0.103c-0.069,0.82-0.103,1.505-0.103,2.052c0,0.343,0.067,1.062,0.205,2.154h-2.565
				c0.068-0.82,0.104-1.571,0.104-2.257h-10.156c0,0.82,0.033,1.539,0.103,2.154h-2.257c0.066-0.067,0.102-0.718,0.102-1.949
				c0-0.888-0.035-1.606-0.102-2.154c0.82,0.069,1.605,0.103,2.359,0.103h3.796c-0.274-1.026-0.719-1.949-1.334-2.77L343.417,92.32z
				 M337.468,100.221c0.546,0.068,1.846,0.104,3.897,0.104h3.181c1.776,0,2.906-0.035,3.385-0.104v1.948
				c-0.343-0.067-1.471-0.103-3.385-0.103h-3.181c-1.984,0-3.282,0.035-3.897,0.103V100.221z"/>
			<rect x="94.388" y="101.616" i:knockout="Off" fill="#479384" width="4.698" height="4.697"/> 
			<rect x="233.029" y="101.616" i:knockout="Off" fill="#479384" width="4.698" height="4.697"/> 
			<rect x="163.711" y="101.616" i:knockout="Off" fill="#BA1653" width="4.698" height="4.697"/> 
			<rect x="302.354" y="101.616" i:knockout="Off" fill="#BA1653" width="4.698" height="4.697"/> 
		</g>
	</svg>
